<svg width="504" height="552" viewBox="0 0 504 552" fill="none" xmlns="http://www.w3.org/2000/svg">
<circle cx="267.825" cy="317.855" r="234.145" fill="#4A3AFF"/>
<mask id="mask0_1349_23210" style="mask-type:alpha" maskUnits="userSpaceOnUse" x="1" y="1" width="502" height="551">
<path d="M501.969 317.855C501.969 341.508 505.612 422.969 499.089 444.492C490.092 455.711 465.358 444.016 459.645 452.16C417.296 512.533 347.169 552 267.824 552C138.51 552 33.6795 447.17 33.6795 317.855C33.6795 241.645 -32.6464 129.03 23.7275 86.2742C43.7093 71.1192 121.358 84.5825 199.39 70.5575C274.759 57.0112 339.206 1.39301 365.298 1.39301C421.708 1.39301 375.986 103.659 416.408 136.887C468.649 179.83 501.969 244.951 501.969 317.855Z" fill="#4A3AFF"/>
</mask>
<g mask="url(#mask0_1349_23210)">
<path fill-rule="evenodd" clip-rule="evenodd" d="M106.593 384.813C116.512 398.545 135.427 402.143 149.693 393.013L278.938 310.32C297.95 298.158 302.826 272.518 289.613 254.225C276.553 236.149 251.083 232.556 233.531 246.312L112.779 340.977C99.2822 351.558 96.5523 370.911 106.593 384.813Z" fill="#FFE3D3"/>
<path fill-rule="evenodd" clip-rule="evenodd" d="M202.329 365.273L284.425 313.2C301.76 299.726 301.77 265.163 287.988 248.07C274.207 230.979 249.089 228.512 232.245 242.595L155.289 306.937C155.289 306.937 178.319 353.448 202.329 365.273Z" fill="#EFF0F7"/>
<path fill-rule="evenodd" clip-rule="evenodd" d="M52.108 200.737C43.8085 205.029 40.0231 214.843 43.2895 223.6L100.717 377.489C107.315 395.161 127.716 403.285 144.655 394.986C161.209 386.874 167.464 366.459 158.297 350.464L76.6146 207.959C71.6963 199.377 60.894 196.193 52.108 200.737Z" fill="#FFE3D3"/>
<path fill-rule="evenodd" clip-rule="evenodd" d="M333.421 235.883L312.632 213.195L319.185 138.53L377.318 143.945L377.026 217.832L333.421 235.883Z" fill="#FFE3D3"/>
<path fill-rule="evenodd" clip-rule="evenodd" d="M304.326 131.156C304.326 131.156 295.697 121.664 291.757 127.755C287.819 133.849 293.71 156.237 303.347 157.105C316.221 158.266 304.326 131.156 304.326 131.156Z" fill="#FFE3D3"/>
<path fill-rule="evenodd" clip-rule="evenodd" d="M358.78 189.708C358.78 189.708 339.359 204.645 314.735 188.495C297.008 176.869 296.012 136.727 300.399 107.422C302.882 90.8377 310.832 82.1215 327.211 77.6973C343.593 73.2731 387.598 74.4683 386.363 123.454C384.986 178.017 358.78 189.708 358.78 189.708Z" fill="#FFE3D3"/>
<path d="M328.479 116.011L328.319 116.031C327.891 116.126 327.603 116.513 327.618 116.936L327.639 117.096L329.896 127.337L323.531 154.886C323.416 155.382 323.738 155.862 324.218 155.962L324.366 155.98L336.097 156.444C336.59 156.464 337.005 156.08 337.025 155.587C337.042 155.143 336.733 154.762 336.312 154.676L336.167 154.659L325.516 154.236L331.682 127.54C331.702 127.454 331.709 127.366 331.703 127.278L331.684 127.147L329.384 116.712C329.289 116.283 328.902 115.995 328.479 116.011Z" fill="#E8AD8C"/>
<path d="M339.759 113.674C339.576 114.977 340.484 116.181 341.786 116.364L349.616 117.507L350.622 117.65C358.257 118.723 362.896 119.108 365.673 118.646C366.97 118.43 367.847 117.203 367.631 115.906C367.428 114.684 366.329 113.836 365.119 113.92L364.441 114.007C362.436 114.217 358.775 113.934 353.325 113.212L349.768 112.716L342.449 111.647C341.147 111.464 339.942 112.372 339.759 113.674Z" fill="#211F54"/>
<path d="M345.574 163.597C345.423 162.924 344.755 162.502 344.083 162.653L343.638 162.741L343.462 162.772C342.926 162.867 342.292 162.962 341.567 163.05C336.688 163.648 330.757 163.664 324.061 162.71C323.379 162.613 322.747 163.087 322.65 163.769C322.552 164.451 323.027 165.083 323.709 165.18C330.634 166.167 336.783 166.15 341.871 165.527L342.749 165.411C343.026 165.372 343.288 165.331 343.535 165.291L344.415 165.133C344.504 165.115 344.576 165.1 344.63 165.088C345.303 164.937 345.725 164.269 345.574 163.597Z" fill="#E8AD8C"/>
<path fill-rule="evenodd" clip-rule="evenodd" d="M380.154 144.279L390.265 125.696C390.265 125.696 397.127 98.6743 391.181 86.784C381.951 68.3336 359.568 68.1539 346.435 62.9137C333.302 57.6711 333.561 53.2069 328.154 53.7908C322.744 54.3722 301.459 68.2937 298.664 83.4303C296.206 96.7379 298.594 130.901 298.594 130.901C298.594 130.901 303.253 100.85 306.397 92.9699C317.05 88.8901 355.288 89.8134 371.098 95.2083C371.098 95.2083 372.176 105.519 372.758 112.775C381.12 119.141 380.154 144.279 380.154 144.279Z" fill="#211F54"/>
<path d="M314.429 186.782C314.107 186.408 313.543 186.366 313.169 186.687C312.795 187.009 312.752 187.573 313.074 187.947C313.318 188.231 313.786 188.703 314.483 189.298C315.627 190.276 317.011 191.25 318.638 192.158C327.394 197.04 339.095 198.073 353.852 192.904C354.318 192.741 354.563 192.231 354.4 191.766C354.237 191.3 353.727 191.055 353.261 191.218C338.989 196.218 327.819 195.231 319.508 190.597C317.987 189.749 316.7 188.843 315.643 187.939L315.216 187.564C314.831 187.215 314.569 186.945 314.429 186.782Z" fill="#E8AD8C"/>
<path d="M328.867 125.567C327.882 125.497 327.028 126.238 326.958 127.223C326.893 128.141 327.534 128.947 328.421 129.107L328.614 129.131L337.235 129.743C338.22 129.812 339.074 129.071 339.144 128.087C339.209 127.168 338.568 126.363 337.682 126.202L337.488 126.178L328.867 125.567Z" fill="#211F54"/>
<path d="M336.35 131.557C334.544 130.717 332.693 130.268 330.871 130.448C329.333 130.6 327.927 131.206 326.747 132.307C326.025 132.98 325.986 134.111 326.659 134.832C327.333 135.554 328.463 135.593 329.185 134.92C329.774 134.369 330.443 134.081 331.222 134.004C332.305 133.897 333.566 134.203 334.843 134.797C335.524 135.113 336.04 135.426 336.301 135.612C337.105 136.185 338.221 135.998 338.793 135.194C339.366 134.391 339.179 133.275 338.375 132.702C337.948 132.398 337.25 131.976 336.35 131.557Z" fill="#211F54"/>
<path d="M323.003 110.717C318.885 109.056 314.712 108.144 310.718 108.398C307.904 108.576 305.298 109.34 302.98 110.769C301.86 111.459 301.512 112.926 302.202 114.046C302.892 115.166 304.359 115.514 305.479 114.824C307.099 113.826 308.951 113.283 311.02 113.152C314.196 112.95 317.707 113.717 321.221 115.134C322.108 115.492 322.942 115.871 323.707 116.252L324.268 116.539C324.805 116.82 325.175 117.032 325.353 117.141C326.473 117.83 327.94 117.48 328.629 116.36C329.318 115.239 328.968 113.772 327.848 113.083L327.341 112.783C326.324 112.201 324.838 111.457 323.003 110.717Z" fill="#211F54"/>
<path d="M328.81 171.731C328.317 171.703 327.895 172.079 327.866 172.571C327.84 173.014 328.142 173.401 328.562 173.495L328.706 173.515L335.735 173.924C336.228 173.953 336.65 173.577 336.679 173.084C336.705 172.641 336.403 172.254 335.983 172.161L335.839 172.14L328.81 171.731Z" fill="#E8AD8C"/>
<path d="M369.424 127.964C368.439 127.912 367.598 128.669 367.546 129.654C367.498 130.574 368.154 131.368 369.043 131.511L369.237 131.532L383.385 132.276C384.371 132.327 385.211 131.571 385.263 130.585C385.311 129.666 384.655 128.872 383.767 128.728L383.573 128.707L369.424 127.964Z" fill="#211F54"/>
<path fill-rule="evenodd" clip-rule="evenodd" d="M368.431 126.892L341.421 125.325C339.538 125.216 337.921 126.65 337.823 128.534C337.646 132.055 337.516 137.707 338.15 142.59C338.899 148.347 343.817 152.133 349.594 152.736C356.808 153.493 363.298 153.874 366.799 150.311C372.131 144.881 371.455 135.394 371.637 130.401C371.705 128.569 370.262 126.997 368.431 126.892Z" fill="white"/>
<path d="M341.455 124.731L368.464 126.298C370.62 126.422 372.31 128.269 372.231 130.423L372.202 131.6L372.171 133.732C372.115 136.901 372 138.671 371.651 140.849C370.988 144.992 369.609 148.298 367.222 150.728C364.045 153.962 359.4 154.363 349.53 153.328C343.225 152.669 338.316 148.489 337.559 142.667C337.02 138.519 336.971 133.602 337.227 128.504C337.342 126.292 339.239 124.602 341.455 124.731ZM341.386 125.92C339.91 125.833 338.637 126.893 338.439 128.323L338.416 128.564C338.163 133.597 338.212 138.451 338.739 142.514C339.42 147.753 343.867 151.54 349.654 152.145L350.945 152.274C359.549 153.098 363.69 152.625 366.373 149.894C368.562 147.665 369.849 144.581 370.476 140.661L370.592 139.884C370.841 138.096 370.933 136.429 370.981 133.699L371.035 130.557C371.037 130.498 371.039 130.439 371.041 130.379C371.097 128.874 369.906 127.573 368.395 127.487L341.386 125.92Z" fill="#211F54"/>
<path d="M349.562 132.475C348.905 132.437 348.341 132.939 348.304 133.596C348.088 137.328 350.602 140.57 354.013 140.77C357.423 140.968 360.296 138.038 360.512 134.305C360.55 133.648 360.048 133.084 359.391 133.046C358.734 133.008 358.171 133.51 358.133 134.167C357.989 136.653 356.17 138.508 354.152 138.391C352.132 138.273 350.539 136.219 350.683 133.733C350.721 133.076 350.219 132.513 349.562 132.475Z" fill="#211F54"/>
<path fill-rule="evenodd" clip-rule="evenodd" d="M326.324 124.147L295.747 122.373C294.354 126.775 294.444 144.117 299.477 148.125C306.294 152.215 320.585 151.446 323.008 147.823C326.686 142.326 328.558 131.541 328.77 126.865C328.835 125.44 327.749 124.23 326.324 124.147Z" fill="white"/>
<path d="M295.78 121.779L326.357 123.553C328.106 123.654 329.443 125.14 329.363 126.892C329.062 133.517 326.688 143.391 323.501 148.154C320.744 152.276 305.937 152.695 299.17 148.635C294.61 145.011 293.154 128.591 295.178 122.194C295.26 121.934 295.508 121.763 295.78 121.779ZM296.187 122.995L296.109 123.286C294.533 129.74 295.987 144.587 299.846 147.659C306.069 151.386 320.175 150.987 322.512 147.492C325.555 142.944 327.882 133.265 328.174 126.838C328.224 125.737 327.386 124.805 326.289 124.741L296.187 122.995Z" fill="#211F54"/>
<path d="M311.399 130.259C310.742 130.221 310.178 130.722 310.14 131.379C309.921 135.113 312.436 138.357 315.847 138.555C319.257 138.752 322.132 135.822 322.348 132.089C322.386 131.432 321.884 130.869 321.227 130.831C320.57 130.793 320.006 131.295 319.969 131.952C319.825 134.436 318.004 136.293 315.984 136.176C313.966 136.059 312.373 134.004 312.518 131.519C312.557 130.862 312.056 130.298 311.399 130.259Z" fill="#211F54"/>
<path d="M337.878 124.397C336.892 124.366 336.067 125.14 336.036 126.126C336.006 127.046 336.679 127.826 337.57 127.952L337.765 127.968L371.294 129.034C372.281 129.065 373.105 128.291 373.137 127.305C373.166 126.384 372.494 125.605 371.602 125.479L371.408 125.462L337.878 124.397Z" fill="#211F54"/>
<path d="M295.585 121.25C294.601 121.179 293.746 121.919 293.675 122.903C293.608 123.822 294.249 124.628 295.135 124.789L295.328 124.814L328.109 127.179C329.093 127.25 329.949 126.51 330.02 125.526C330.086 124.607 329.446 123.801 328.56 123.64L328.366 123.615L295.585 121.25Z" fill="#211F54"/>
<path fill-rule="evenodd" clip-rule="evenodd" d="M384.9 129.161C388.424 125.662 393.806 124.776 397.524 128.954C403.515 135.683 397.399 160.188 380.893 160.916C374.647 159.936 379.401 134.618 384.9 129.161Z" fill="#FFE3D3"/>
<path fill-rule="evenodd" clip-rule="evenodd" d="M401.864 435.912C401.864 435.912 416.669 361.798 423.221 334.42C429.772 307.038 439.723 241.486 428.412 236.578C417.098 231.67 390.014 221.247 390.014 221.247C390.014 221.247 363.144 224.698 338.872 229.866C319.66 233.958 325.115 215.919 301.821 219.767C291.957 221.399 260.998 226.277 245.542 234.709C239.343 238.09 240.344 258.622 239.463 278.579C236.653 342.28 252.197 439.88 252.197 439.88C252.197 439.88 242.979 449.352 254.153 461.636C259.69 467.388 283.663 465.439 314.35 465.514C349.282 465.599 390.373 469.986 397.996 463.343C412.317 450.867 401.864 435.912 401.864 435.912Z" fill="#EFF0F7"/>
<path fill-rule="evenodd" clip-rule="evenodd" d="M311.706 210.195L335.125 232.678L307.023 252.351L294.845 222.372L311.706 210.195Z" fill="#EFF0F7"/>
<path fill-rule="evenodd" clip-rule="evenodd" d="M375.735 1056.29L326.507 590.287L324.546 589.321L272.873 1057.36C272.873 1057.36 234.345 1066.29 213.985 1054.07C213.192 963.32 234.559 668.533 243.603 533.91C245.057 512.235 251.72 482.775 253.05 474.586C314.906 464.133 398.707 479.207 398.707 479.207L402.328 490.074C403.031 492.188 403.458 494.386 403.593 496.61L442.433 1051.69C442.433 1051.69 404.361 1065.47 375.735 1056.29Z" fill="#6E7191"/>
<path fill-rule="evenodd" clip-rule="evenodd" d="M398.37 463.149C398.37 463.149 319.605 451.509 254.13 462.977C253.591 468.781 253.029 475.928 253.029 475.928C253.029 475.928 309.054 479.786 399.64 482.019C399.388 466.266 398.37 463.149 398.37 463.149Z" fill="#6E7191"/>
<path d="M372.854 479.788C344.162 477.454 314.711 476.556 287.207 477.929C275.649 478.506 264.744 479.48 254.6 480.885C254.112 480.953 253.77 481.404 253.838 481.892C253.906 482.381 254.357 482.722 254.845 482.655C264.934 481.257 275.788 480.288 287.297 479.713C314.712 478.345 344.089 479.241 372.709 481.569L377.252 481.952C381.699 482.34 385.856 482.743 389.68 483.146L393.969 483.616L397.023 483.975C397.314 484.011 397.536 484.039 397.686 484.058C398.175 484.121 398.623 483.775 398.686 483.286C398.749 482.797 398.403 482.349 397.914 482.286L396.151 482.071C394.918 481.924 393.51 481.764 391.935 481.592L388.577 481.235C383.801 480.74 378.534 480.25 372.854 479.788Z" fill="#A0A3BD"/>
<path d="M373.17 460.117C344.479 457.783 315.027 456.885 287.524 458.258C275.965 458.835 265.06 459.809 254.917 461.214C254.428 461.282 254.087 461.733 254.154 462.222C254.222 462.71 254.673 463.052 255.162 462.984C265.251 461.586 276.104 460.617 287.613 460.042C315.028 458.674 344.405 459.57 373.025 461.898L376.075 462.152C380.586 462.537 384.812 462.938 388.709 463.341L393.571 463.865L398.002 464.388C398.492 464.45 398.939 464.105 399.002 463.615C399.065 463.126 398.72 462.678 398.23 462.615L396.468 462.4C395.44 462.278 394.291 462.146 393.025 462.006L388.894 461.564C384.117 461.07 378.851 460.58 373.17 460.117Z" fill="#EFF0F7"/>
<path d="M319.453 461.343C318.96 461.332 318.55 461.722 318.538 462.215L318.439 466.876C318.401 468.877 318.363 471.081 318.327 473.468C318.031 493.25 318.013 514.236 318.457 533.899L318.566 538.372C319.05 556.528 319.927 571.749 321.263 583.165C321.321 583.655 321.764 584.006 322.254 583.948C322.744 583.891 323.095 583.447 323.038 582.957L322.826 581.083C321.512 569.001 320.673 552.938 320.243 533.859C319.834 515.732 319.817 496.473 320.05 478.076L320.129 472.484L320.324 462.259C320.336 461.766 319.946 461.356 319.453 461.343Z" fill="#A0A3BD"/>
<path fill-rule="evenodd" clip-rule="evenodd" d="M304.14 467.805C304.106 470.026 305.478 471.85 307.207 471.88C308.934 471.908 310.364 470.129 310.399 467.905C310.434 465.684 309.064 463.86 307.334 463.83C305.605 463.803 304.175 465.582 304.14 467.805Z" fill="#A0A3BD"/>
<path fill-rule="evenodd" clip-rule="evenodd" d="M335.001 230.845L356.678 259.367L389.064 221.308L377.204 206.481L335.001 230.845Z" fill="#EFF0F7"/>
<path d="M334.026 232.388C333.409 232.161 332.724 232.477 332.497 233.095L332.272 233.761L332.05 234.472C331.971 234.73 331.889 235.009 331.802 235.308L331.669 235.774C331.126 237.701 330.531 240.07 329.896 242.916L329.546 244.516C327.42 254.403 325.296 267.474 323.308 284.142L322.779 288.69C320.643 307.535 318.808 329.672 317.361 355.364L317.241 357.513C315.084 396.674 315.583 430.27 317.462 455.382C317.511 456.039 318.083 456.531 318.739 456.482C319.395 456.433 319.888 455.861 319.839 455.205L319.653 452.632C317.966 428.348 317.556 396.513 319.513 359.625L319.62 357.644C321.084 331.08 322.957 308.281 325.146 288.96L325.504 285.857C327.533 268.573 329.705 255.109 331.875 245.017L332.221 243.439C332.79 240.889 333.325 238.733 333.817 236.946L333.963 236.421C334.138 235.801 334.296 235.267 334.437 234.815L334.68 234.069C334.703 234.001 334.721 233.951 334.733 233.918C334.96 233.3 334.644 232.615 334.026 232.388Z" fill="#DCDDEB"/>
<path d="M239.291 273.919C238.71 273.432 237.892 273.519 237.418 274.094C237.216 274.339 237.108 274.614 237.022 274.971C236.924 275.38 236.852 275.951 236.801 276.701L236.777 277.09C236.689 278.666 236.675 280.955 236.734 283.888L236.767 285.287C236.962 292.724 237.564 303.379 238.533 316.173L238.895 320.837C241.313 351.319 245.35 389.159 250.772 430.27L251.351 434.621L251.129 435.19L250.938 435.705C250.542 436.788 250.147 437.985 249.778 439.264C248.883 442.372 248.285 445.459 248.125 448.365C247.858 453.218 248.831 457.169 251.414 459.836C251.872 460.309 252.627 460.321 253.099 459.863C253.572 459.405 253.584 458.651 253.126 458.178C251.089 456.075 250.27 452.75 250.505 448.496C250.654 445.791 251.219 442.873 252.068 439.924C252.35 438.945 252.649 438.017 252.95 437.156L253.356 436.04C253.494 435.675 253.601 435.405 253.67 435.243C253.753 435.047 253.781 434.833 253.753 434.622L252.829 427.638C247.466 386.692 243.49 349.095 241.135 318.935L240.817 314.766C239.966 303.368 239.414 293.745 239.192 286.696L239.119 283.933C239.062 281.22 239.07 279.072 239.139 277.56L239.156 277.223C239.183 276.735 239.217 276.332 239.256 276.022L239.298 275.735L239.317 275.724L239.44 275.597C239.862 275.092 239.796 274.341 239.291 273.919Z" fill="#DCDDEB"/>
<path d="M300.017 268.76L301.655 268.901C302.184 268.948 302.697 268.997 303.191 269.046L305.607 269.304L306.345 269.392C306.999 269.476 307.475 270.053 307.432 270.711L304.547 315.162C304.52 315.584 304.281 315.964 303.911 316.17L279.832 329.643C279.418 329.874 278.91 329.851 278.519 329.584L259.919 316.885C259.579 316.653 259.375 316.269 259.375 315.858L259.392 307.768L259.42 302.608C259.479 293.67 259.588 283.721 259.761 272.938C259.769 272.457 260.052 272.024 260.489 271.824C265.186 269.671 271.97 268.54 280.33 268.221C286.645 267.981 293.398 268.218 300.017 268.76ZM279.536 270.752C272.474 271.076 266.661 272.019 262.527 273.666L262.245 273.781L262.088 284.739C262.016 290.434 261.963 295.844 261.927 300.938L261.876 310.578L261.87 315.195L279.288 327.086L302.102 314.323L304.867 271.73L304.352 271.674C303.001 271.529 301.477 271.383 299.814 271.247C293.286 270.712 286.627 270.478 280.425 270.715L279.536 270.752Z" fill="#DCDDEB"/>
<path fill-rule="evenodd" clip-rule="evenodd" d="M333.314 252.283C333.279 254.507 334.752 256.331 336.603 256.361C338.455 256.391 339.984 254.614 340.022 252.391C340.057 250.17 338.585 248.343 336.733 248.313C334.879 248.283 333.349 250.06 333.314 252.283Z" fill="white"/>
<path fill-rule="evenodd" clip-rule="evenodd" d="M327.964 293.115C327.929 295.336 329.401 297.163 331.253 297.193C333.104 297.222 334.634 295.446 334.671 293.222C334.706 291.002 333.234 289.175 331.382 289.145C329.528 289.115 327.999 290.892 327.964 293.115Z" fill="white"/>
<path fill-rule="evenodd" clip-rule="evenodd" d="M324.569 337.332C324.534 339.555 326.007 341.379 327.858 341.409C329.71 341.439 331.239 339.662 331.277 337.439C331.312 335.218 329.839 333.391 327.988 333.361C326.134 333.332 324.604 335.111 324.569 337.332Z" fill="white"/>
<path fill-rule="evenodd" clip-rule="evenodd" d="M323.232 378.898C323.197 381.119 324.67 382.946 326.521 382.976C328.373 383.006 329.902 381.229 329.94 379.006C329.975 376.785 328.503 374.958 326.651 374.928C324.799 374.898 323.27 376.675 323.232 378.898Z" fill="white"/>
<path fill-rule="evenodd" clip-rule="evenodd" d="M323.018 433.899C322.984 436.122 324.456 437.946 326.307 437.976C328.159 438.006 329.689 436.229 329.726 434.006C329.761 431.785 328.289 429.959 326.437 429.929C324.583 429.899 323.053 431.675 323.018 433.899Z" fill="white"/>
<path d="M389.415 221.563C388.959 221.176 388.296 221.192 387.859 221.575L387.736 221.701L357.343 257.541L335.644 232.3C335.254 231.846 334.597 231.758 334.106 232.068L333.964 232.173C333.51 232.563 333.422 233.22 333.732 233.712L333.837 233.853L356.444 260.154C356.882 260.664 357.642 260.704 358.131 260.276L358.257 260.148L389.553 223.242C389.979 222.74 389.917 221.989 389.415 221.563Z" fill="#DCDDEB"/>
<path d="M298.689 223.176C298.49 222.549 297.819 222.202 297.192 222.402C296.618 222.585 296.279 223.163 296.38 223.741L296.418 223.899L305.888 253.648C306.122 254.383 306.972 254.693 307.616 254.321L307.751 254.231L334.581 233.559C335.102 233.158 335.199 232.409 334.797 231.888C334.432 231.414 333.781 231.291 333.273 231.574L333.126 231.672L307.644 251.305L298.689 223.176Z" fill="#DCDDEB"/>
<path d="M299.857 478.561C299.369 478.488 298.914 478.825 298.841 479.313L298.611 481.018L298.556 481.454C298.343 483.165 298.13 485.102 297.931 487.226C297.024 496.923 296.714 506.926 297.36 516.28C298.866 538.103 305.215 551.949 318.102 553.705C318.591 553.771 319.041 553.429 319.108 552.94C319.175 552.451 318.832 552.001 318.343 551.934C306.615 550.337 300.595 537.21 299.142 516.157C298.504 506.913 298.811 497.001 299.71 487.392L299.882 485.635C299.998 484.494 300.118 483.419 300.238 482.414L300.435 480.84L300.608 479.576C300.681 479.088 300.345 478.634 299.857 478.561Z" fill="#A0A3BD"/>
<path d="M392.337 132.545C392.152 132.088 391.631 131.867 391.174 132.052L390.861 132.191C390.675 132.278 390.447 132.394 390.186 132.537C389.469 132.932 388.752 133.412 388.08 133.979C385.606 136.068 384.366 138.775 385.129 142.051C385.418 143.292 385.988 143.955 387.05 144.587L387.507 144.844C388.418 145.342 388.645 145.588 388.729 146.362C388.89 147.846 388.215 148.956 386.918 149.806C386.487 150.089 386.019 150.319 385.551 150.497L385.133 150.643C385.06 150.666 385.001 150.682 384.959 150.693C384.479 150.81 384.186 151.293 384.303 151.773C384.42 152.252 384.903 152.545 385.383 152.428C386.032 152.269 386.96 151.915 387.898 151.3C389.708 150.113 390.748 148.404 390.505 146.169C390.355 144.786 389.815 144.117 388.628 143.425L388.187 143.179C387.348 142.717 387.045 142.404 386.869 141.646C386.278 139.108 387.227 137.038 389.233 135.344C389.808 134.858 390.429 134.444 391.049 134.102C391.417 133.899 391.697 133.768 391.844 133.709C392.301 133.524 392.522 133.003 392.337 132.545Z" fill="#E8AD8C"/>
<path fill-rule="evenodd" clip-rule="evenodd" d="M78.4785 212.203C78.4785 212.203 52.8116 135.691 23.751 117.121C15.0997 117.44 23.212 128.836 29.2332 138.161C32.3125 142.93 34.3436 148.954 34.3436 148.954C34.3436 148.954 22.4784 147.713 24.7541 157.785C15.2469 157.325 18.688 167.965 18.688 167.965C18.688 167.965 11.3792 167.98 13.7298 177.864C15.3442 184.659 24.4996 192.679 26.5982 199.828C34.6905 227.397 47.9831 228.921 53.3206 229.767C66.8303 231.903 75.1248 226.76 78.4785 212.203Z" fill="#FFE3D3"/>
<path d="M61.8044 177.652L51.401 155.124L51.1416 154.148C48.8398 145.882 45.192 142.499 42.0679 145.483C39.381 148.049 38.9063 154.6 41.3127 160.554C46.1034 172.406 46.5866 177.891 44.8641 184.358L44.2952 186.427C43.9751 187.652 43.79 188.635 43.7129 189.678C43.3819 194.154 43.6003 198.322 44.846 202.342C46.6657 208.216 50.4292 212.354 56.5457 214.025C57.0217 214.155 57.5128 213.874 57.6428 213.398C57.7728 212.922 57.4923 212.431 57.0164 212.301C47.3373 209.658 44.6647 201.032 45.4947 189.81C45.553 189.021 45.6834 188.26 45.9052 187.348L46.1501 186.407C46.2285 186.12 46.3263 185.771 46.4723 185.252L46.7005 184.395C48.3923 177.721 47.8002 171.836 42.9692 159.885C40.8097 154.541 41.229 148.755 43.302 146.775C44.9741 145.177 47.4441 147.479 49.453 154.702L49.724 155.718L60.1819 178.4C60.3885 178.848 60.9192 179.044 61.3672 178.837C61.7655 178.654 61.9644 178.214 61.8586 177.804L61.8044 177.652Z" fill="#E8AD8C"/>
<path d="M24.36 156.983C23.9169 157.2 23.7337 157.735 23.9507 158.178L24.2896 158.852C24.5607 159.383 24.87 159.974 25.2126 160.611C26.1916 162.43 27.2413 164.249 28.3216 165.951C29.4782 167.772 30.6032 169.351 31.6767 170.619C33.8659 173.206 35.7787 174.472 37.5311 173.936C41.4676 172.73 42.676 169.832 41.6903 166.065C41.317 164.639 40.6471 163.141 39.7661 161.62C39.2852 160.79 38.7709 160.004 38.2562 159.287L37.8448 158.727C37.7271 158.572 37.6302 158.448 37.5582 158.36C37.2469 157.977 36.6843 157.919 36.3015 158.23C35.9188 158.542 35.8609 159.104 36.1722 159.487L36.5394 159.964C36.6194 160.072 36.7081 160.194 36.8041 160.327C37.287 161.001 37.7702 161.739 38.2201 162.516C39.0271 163.909 39.6346 165.267 39.9618 166.518C40.7245 169.432 39.9322 171.332 37.008 172.228C36.2111 172.472 34.7868 171.528 33.0404 169.465C32.0264 168.267 30.9463 166.751 29.8299 164.993C28.7749 163.332 27.746 161.548 26.7859 159.764L26.3068 158.863L25.5552 157.393C25.3382 156.95 24.8031 156.766 24.36 156.983Z" fill="#E8AD8C"/>
<path d="M19.9779 168.194C19.8196 167.727 19.3125 167.476 18.8452 167.635C18.3779 167.793 18.1273 168.3 18.2856 168.767L18.4873 169.326L18.7525 170.013C18.848 170.253 18.9505 170.504 19.0599 170.764C19.6856 172.251 20.4095 173.737 21.2252 175.13C23.7586 179.456 26.619 182.011 29.8821 181.753C33.0918 181.5 34.5907 179.4 34.6767 176.307C34.708 175.181 34.5528 173.995 34.2761 172.818C34.125 172.175 33.9727 171.675 33.8669 171.379C33.701 170.915 33.1898 170.673 32.7252 170.839C32.2606 171.004 32.0184 171.516 32.1844 171.98L32.2836 172.282C32.3581 172.524 32.4472 172.846 32.5369 173.227C32.7811 174.265 32.9172 175.306 32.8907 176.258C32.8277 178.525 31.917 179.8 29.7414 179.972C27.3863 180.158 24.9832 178.012 22.7669 174.227C21.9946 172.909 21.304 171.49 20.7066 170.071L20.4131 169.354L20.0461 168.389C20.0156 168.304 19.9928 168.238 19.9779 168.194Z" fill="#E8AD8C"/>
<path d="M13.2638 175.528C12.7846 175.645 12.4913 176.129 12.6086 176.608L12.7453 177.119L12.9967 177.966C13.0435 178.116 13.0928 178.27 13.1446 178.427C13.5886 179.779 14.1232 181.132 14.7515 182.401C17.0814 187.106 20.1056 189.556 23.8598 188.117C26.519 187.097 27.5615 185.189 27.1598 182.833C26.9632 181.68 26.437 180.489 25.6857 179.295C25.3568 178.772 25.0054 178.282 24.6537 177.839L24.3231 177.435C24.2625 177.364 24.2111 177.306 24.1704 177.261C23.8381 176.897 23.2731 176.87 22.9084 177.203C22.5437 177.535 22.5174 178.1 22.8497 178.465L23.0527 178.701C23.1117 178.772 23.1791 178.854 23.2536 178.948C23.5672 179.344 23.8813 179.782 24.1734 180.246C24.8106 181.259 25.2476 182.248 25.3986 183.134C25.6593 184.662 25.0713 185.739 23.2202 186.449C20.6188 187.446 18.322 185.585 16.3526 181.608C15.7657 180.423 15.2614 179.147 14.8421 177.87C14.7442 177.572 14.6557 177.288 14.5767 177.022L14.344 176.183C14.2397 175.757 13.846 175.478 13.4232 175.504L13.2638 175.528Z" fill="#E8AD8C"/>
<path d="M154.673 305.918C154.11 306.259 153.93 306.992 154.272 307.555L155.621 309.741L156.891 311.763C157.928 313.403 159.06 315.167 160.275 317.031C164.905 324.132 169.797 331.233 174.73 337.864C178.304 342.668 181.771 347.047 185.087 350.906C191.406 358.259 197.001 363.525 201.726 366.301C202.056 366.494 202.456 366.516 202.8 366.368L202.968 366.28L241.965 341.571C242.52 341.219 242.686 340.483 242.333 339.927C242.013 339.421 241.376 339.239 240.845 339.475L240.689 339.558L202.318 363.87L201.999 363.67C197.892 361.021 193.008 356.388 187.529 350.087L186.894 349.352C183.618 345.54 180.185 341.204 176.642 336.442C171.741 329.854 166.876 322.792 162.271 315.729L161.091 313.909C160.13 312.421 159.231 311.009 158.398 309.685L157.155 307.695L156.31 306.32C155.968 305.757 155.236 305.577 154.673 305.918Z" fill="#DCDDEB"/>
<path d="M138.134 310.172C137.905 309.735 137.365 309.567 136.928 309.796C136.54 310 136.364 310.45 136.491 310.854L136.553 311.003L157.506 350.88C157.736 351.317 158.276 351.485 158.712 351.256C159.101 351.052 159.277 350.602 159.15 350.198L159.088 350.049L138.134 310.172Z" fill="#E8AD8C"/>
<path fill-rule="evenodd" clip-rule="evenodd" d="M482.307 444.402C497.943 437.887 505.773 420.3 500.151 404.322L449.222 259.583C441.731 238.298 417.888 227.683 397.057 236.362C376.47 244.938 367.145 268.911 376.523 289.143L441.05 428.352C448.261 443.913 466.477 450.997 482.307 444.402Z" fill="#FFE3D3"/>
<path fill-rule="evenodd" clip-rule="evenodd" d="M480.197 346.735L448.29 254.902C439.139 234.945 405.495 227.027 385.702 236.532C365.911 246.036 357.762 269.927 367.618 289.545L412.649 379.177C412.649 379.177 463.194 367.401 480.197 346.735Z" fill="#EFF0F7"/>
<path d="M388.558 311.526C388.3 310.921 387.601 310.639 386.995 310.896C386.445 311.131 386.162 311.73 386.308 312.292L386.365 312.459L414.47 378.501C414.711 379.067 415.344 379.357 415.931 379.169L418.411 378.348L420.705 377.567C422.565 376.926 424.566 376.221 426.68 375.456C434.736 372.54 442.793 369.36 450.317 366.018L452.489 365.042C463.92 359.844 472.883 354.761 478.537 349.929C479.472 349.13 480.314 348.34 481.06 347.558C481.515 347.081 481.497 346.327 481.021 345.873C480.544 345.419 479.79 345.437 479.336 345.913C478.648 346.634 477.865 347.369 476.989 348.118C471.199 353.065 461.625 358.389 449.35 363.841C441.882 367.157 433.876 370.317 425.87 373.215L423.806 373.955C422.12 374.556 420.518 375.114 419.018 375.626L416.236 376.562L388.558 311.526Z" fill="#DCDDEB"/>
<path fill-rule="evenodd" clip-rule="evenodd" d="M286.137 427.076C287.055 436.373 294.776 443.52 304.118 443.722L468.336 447.265C487.193 447.672 502.287 431.719 500.837 412.912C499.422 394.531 482.766 381.171 464.515 383.777L301.907 406.976C292.116 408.373 285.164 417.234 286.137 427.076Z" fill="#FFE3D3"/>
<path fill-rule="evenodd" clip-rule="evenodd" d="M299.575 469.304L263.47 356.363C262.874 354.499 261.157 353.227 259.201 353.202L157.958 351.831C154.814 351.789 152.578 354.876 153.599 357.85L191.288 467.792C191.894 469.561 193.521 470.776 195.388 470.859L295.046 475.231C298.208 475.368 300.538 472.319 299.575 469.304Z" fill="#6E7191"/>
<path fill-rule="evenodd" clip-rule="evenodd" d="M294.239 467.927L258.763 356.952C258.042 354.699 255.961 353.157 253.593 353.124L151.1 351.737C148.902 351.709 147.337 353.868 148.051 355.946L186.264 467.41C186.935 469.369 188.735 470.716 190.803 470.806L288.755 475.103C292.583 475.27 295.407 471.575 294.239 467.927Z" fill="#211F54"/>
<path fill-rule="evenodd" clip-rule="evenodd" d="M244.885 363.819C243.74 365.094 244.151 367.332 245.806 368.822C247.46 370.309 249.731 370.481 250.879 369.209C252.024 367.933 251.613 365.693 249.958 364.205C248.304 362.716 246.03 362.544 244.885 363.819Z" fill="#DCDDEB"/>
<path fill-rule="evenodd" clip-rule="evenodd" d="M246.246 365.152C245.649 365.813 245.864 366.976 246.722 367.749C247.583 368.52 248.761 368.61 249.358 367.949C249.951 367.288 249.737 366.125 248.878 365.351C248.02 364.58 246.84 364.49 246.246 365.152Z" fill="white"/>
<path fill-rule="evenodd" clip-rule="evenodd" d="M254.508 448.068C248.691 447.504 245.632 445.071 246.183 440.225C239.186 438.024 239.967 432.098 239.967 432.098C239.967 432.098 226.5 431.89 224.234 426.136C223.353 423.9 225.063 421.51 227.458 421.348C256.312 419.391 276.886 404.103 276.886 404.103C276.886 404.103 265.542 387.446 266.742 379.758C267.096 377.485 270.068 376.751 271.458 378.585C283.353 394.283 307.206 406.593 307.206 406.593C307.206 406.593 335.84 433.42 304.781 445.585C304.781 445.585 281.103 455.02 264.619 453.824C256.813 453.26 254.508 448.068 254.508 448.068Z" fill="#FFE3D3"/>
<path d="M261.189 426.983C260.948 426.552 260.404 426.398 259.973 426.639C257.907 427.794 255.493 428.735 252.8 429.479C249.59 430.365 246.144 430.932 242.676 431.24L241.621 431.326C240.262 431.427 239.098 431.473 238.19 431.484L237.519 431.486C237.026 431.479 236.621 431.874 236.614 432.367C236.608 432.811 236.927 433.184 237.35 433.259L237.495 433.272L237.863 433.274C239.071 433.27 240.781 433.202 242.834 433.02C246.401 432.702 249.951 432.119 253.275 431.201C256.098 430.422 258.644 429.429 260.845 428.198C261.276 427.958 261.43 427.413 261.189 426.983Z" fill="#E8AD8C"/>
<path d="M263.904 435.85C263.689 435.406 263.155 435.22 262.711 435.434C262.445 435.563 262.176 435.688 261.906 435.81C258.48 437.356 254.8 438.347 251.106 438.891C248.824 439.227 246.995 439.336 245.858 439.328C245.351 439.321 244.945 439.716 244.939 440.209C244.933 440.653 245.252 441.026 245.675 441.101L245.82 441.114H246.14L246.801 441.099C247.979 441.058 249.536 440.928 251.366 440.659C255.214 440.092 259.05 439.059 262.64 437.439C262.925 437.31 263.208 437.178 263.488 437.043C263.933 436.828 264.119 436.294 263.904 435.85Z" fill="#E8AD8C"/>
<path d="M269.041 445.757C268.826 445.313 268.292 445.127 267.847 445.342C266.897 445.802 264.654 446.231 261.602 446.582C260.042 446.762 258.368 446.912 256.694 447.033L254.464 447.175C253.971 447.2 253.592 447.62 253.617 448.113C253.642 448.606 254.062 448.985 254.555 448.96L256.385 448.846L256.822 448.815C258.521 448.692 260.219 448.54 261.807 448.357L262.921 448.221C265.609 447.873 267.567 447.462 268.625 446.95C269.069 446.736 269.255 446.201 269.041 445.757Z" fill="#E8AD8C"/>
<path d="M464.395 382.891L305.842 404.55C305.353 404.617 305.011 405.067 305.078 405.556C305.138 405.996 305.509 406.317 305.938 406.328L306.084 406.32L464.637 384.661C465.125 384.594 465.468 384.144 465.401 383.655C465.341 383.215 464.97 382.894 464.54 382.883L464.395 382.891Z" fill="#E8AD8C"/>
</g>
<path fill-rule="evenodd" clip-rule="evenodd" d="M169.646 95.0496C147.735 95.0496 129.973 112.812 129.973 134.722V134.824C129.973 156.734 147.735 174.496 169.646 174.496H228.151C230.337 174.496 232.481 174.32 234.571 173.98L245.905 184.928C246.214 185.226 246.625 185.392 247.054 185.392C247.967 185.392 248.707 184.652 248.707 183.739L248.708 168.762C260.168 161.806 267.824 149.209 267.824 134.824V134.722C267.824 112.812 250.062 95.0496 228.151 95.0496H169.646Z" fill="#211F54"/>
<path d="M179.268 0H95.7302C64.4292 0 39.0547 25.3745 39.0547 56.6755C39.0547 87.9765 64.4292 113.351 95.7302 113.351H179.268C210.569 113.351 235.943 87.9765 235.943 56.6755C235.943 25.3745 210.569 0 179.268 0Z" fill="#4A3AFF"/>
<path fill-rule="evenodd" clip-rule="evenodd" d="M66.3613 96.8651V126.535C66.3613 127.839 67.4186 128.897 68.7228 128.897C69.3345 128.897 69.9223 128.659 70.3625 128.235L92.1655 107.197L66.3613 96.8651Z" fill="#4A3AFF"/>
<path d="M99.5687 63.7599C104.623 63.7599 108.719 59.663 108.719 54.6092C108.719 49.5554 104.623 45.4585 99.5687 45.4585C94.5149 45.4585 90.418 49.5554 90.418 54.6092C90.418 59.663 94.5149 63.7599 99.5687 63.7599Z" fill="white"/>
<path d="M137.058 63.7599C142.112 63.7599 146.209 59.663 146.209 54.6092C146.209 49.5554 142.112 45.4585 137.058 45.4585C132.004 45.4585 127.907 49.5554 127.907 54.6092C127.907 59.663 132.004 63.7599 137.058 63.7599Z" fill="white"/>
<path d="M175.432 63.7599C180.486 63.7599 184.583 59.663 184.583 54.6092C184.583 49.5554 180.486 45.4585 175.432 45.4585C170.378 45.4585 166.281 49.5554 166.281 54.6092C166.281 59.663 170.378 63.7599 175.432 63.7599Z" fill="white"/>
</svg>
