<svg width="189" height="189" viewBox="0 0 189 189" fill="none" xmlns="http://www.w3.org/2000/svg">
<path opacity="0.1" d="M104.478 189H84.522C77.8279 188.994 71.4096 186.332 66.6762 181.598C61.9427 176.864 59.281 170.445 59.2754 163.751V129.422L25.2571 129.729C18.5629 129.72 12.1452 127.058 7.41065 122.325C2.67614 117.591 0.0111984 111.174 0 104.479V84.5209C0.0083998 77.8241 2.67211 71.404 7.40692 66.6687C12.1417 61.9333 18.5611 59.2693 25.2571 59.2609H59.5823L59.2754 25.2494C59.281 18.5546 61.9427 12.1355 66.6762 7.40157C71.4096 2.6676 77.8279 0.00560472 84.522 0H104.478C111.172 0.00560472 117.59 2.6676 122.324 7.40157C127.057 12.1355 129.719 18.5546 129.725 25.2494V59.5784L163.743 59.2609C170.439 59.2693 176.858 61.9333 181.593 66.6687C186.328 71.404 188.992 77.8241 189 84.5209V104.479C188.989 111.174 186.324 117.591 181.589 122.325C176.855 127.058 170.437 129.72 163.743 129.729H129.418L129.714 163.751C129.708 170.444 127.048 176.861 122.317 181.595C117.586 186.328 111.17 188.992 104.478 189ZM25.2571 69.8432C21.3657 69.846 17.6344 71.3933 14.8827 74.1453C12.131 76.8973 10.5839 80.629 10.5811 84.5209V104.479C10.5867 108.369 12.1351 112.098 14.8865 114.848C17.6378 117.598 21.3675 119.143 25.2571 119.146H59.5823C62.3082 119.146 64.9226 120.228 66.851 122.155C68.7795 124.082 69.8643 126.695 69.8671 129.422V163.751C69.8727 167.639 71.4196 171.366 74.1687 174.116C76.9178 176.865 80.6448 178.412 84.5326 178.418H104.489C108.376 178.412 112.103 176.865 114.852 174.116C117.602 171.366 119.148 167.639 119.154 163.751V129.422C119.157 126.695 120.242 124.082 122.17 122.155C124.099 120.228 126.713 119.146 129.439 119.146H163.753C167.643 119.143 171.373 117.598 174.124 114.848C176.876 112.098 178.424 108.369 178.429 104.479V84.5209C178.427 80.6272 176.878 76.8939 174.124 74.1416C171.37 71.3893 167.636 69.8432 163.743 69.8432H129.418C126.694 69.8432 124.081 68.7624 122.153 66.838C120.225 64.9136 119.138 62.3027 119.133 59.5784V25.2494C119.127 21.363 117.582 17.6372 114.835 14.8881C112.088 12.139 108.364 10.5907 104.478 10.5823H84.522C80.6342 10.5879 76.9072 12.135 74.1582 14.8844C71.4091 17.6338 69.8622 21.3612 69.8566 25.2494V59.5784C69.851 62.3027 68.7649 64.9136 66.8367 66.838C64.9086 68.7624 62.2958 69.8432 59.5717 69.8432H25.2571Z" fill="white"/>
</svg>
