<svg width="67" height="134" viewBox="0 0 67 134" fill="none" xmlns="http://www.w3.org/2000/svg">
<path opacity="0.2" d="M67 67C58.2014 67 49.489 65.267 41.3602 61.8999C33.2314 58.5329 25.8454 53.5977 19.6239 47.3762C13.4023 41.1546 8.46714 33.7686 5.10008 25.6398C1.73301 17.511 6.64273e-07 8.79857 0 5.05836e-06L67 0L67 67Z" fill="white"/>
<path opacity="0.2" d="M2.92866e-06 134C8.79857 134 17.511 132.267 25.6398 128.9C33.7686 125.533 41.1546 120.598 47.3762 114.376C53.5977 108.155 58.5329 100.769 61.8999 92.6398C65.267 84.511 67 75.7986 67 67L0 67L2.92866e-06 134Z" fill="white"/>
</svg>
