<svg width="22" height="24" viewBox="0 0 22 24" fill="none" xmlns="http://www.w3.org/2000/svg">
<path d="M5.97707 23.9999C6.34693 23.9999 6.7256 23.9978 7.11253 23.9978H14.4371C14.8235 23.9978 15.2021 23.9999 15.572 23.9999C18.9611 23.9999 21.5507 23.8266 21.5507 20.2837C21.5507 16.5754 18.7147 13.5311 15.0928 13.2002C15.064 14.4975 10.776 17.6991 10.776 17.6991C10.776 17.6991 6.48693 14.4978 6.45787 13.2005C2.83653 13.5311 0 16.5754 0 20.2837C0 23.8266 2.58853 23.9999 5.97707 23.9999ZM13.9752 19.1618C13.9752 19.0562 14.0704 18.9711 14.1888 18.9711H15.3472V17.8133C15.3472 17.6959 15.4317 17.5997 15.5373 17.5997H16.6805C16.7856 17.5997 16.8707 17.6951 16.8707 17.8133V18.9714H18.0285C18.1459 18.9714 18.2419 19.0565 18.2419 19.1621V20.3047C18.2419 20.4103 18.1467 20.4954 18.0285 20.4954H16.8704V21.6533C16.8704 21.7711 16.7851 21.8666 16.6797 21.8666H15.5371C15.4315 21.8666 15.3464 21.7714 15.3464 21.6533V20.4951H14.1885C14.0707 20.4951 13.9749 20.4101 13.9749 20.3045L13.9752 19.1618Z" fill="#FE706D"/>
<path d="M10.7761 14.1312C14.0518 14.1312 16.707 9.2056 16.707 5.93013C16.707 2.6552 14.0518 0 10.7761 0C7.5009 0 4.8457 2.6552 4.8457 5.93013C4.8457 9.2056 7.5009 14.1312 10.7761 14.1312Z" fill="#FE706D"/>
</svg>
