<svg width="24" height="24" viewBox="0 0 24 24" fill="none" xmlns="http://www.w3.org/2000/svg">
<g clip-path="url(#clip0_398_265)">
<path d="M19.532 9.22915V5.92502H22.5445C22.6835 5.92502 22.8195 5.88378 22.9351 5.80652C23.0507 5.72925 23.1409 5.61944 23.1941 5.49096C23.2473 5.36247 23.2612 5.2211 23.2341 5.0847C23.2069 4.94831 23.14 4.82303 23.0416 4.7247L18.5229 0.205945C18.2483 -0.0686484 17.8031 -0.0686484 17.5285 0.205945L13.0098 4.7247C12.9115 4.82304 12.8445 4.94832 12.8174 5.0847C12.7903 5.22108 12.8043 5.36243 12.8575 5.4909C12.9107 5.61936 13.0008 5.72917 13.1164 5.80644C13.232 5.88371 13.3679 5.92498 13.5069 5.92502H16.5195V9.22915C9.83239 11.0994 11.0011 20.8344 18.0259 20.9875C25.0518 20.8338 26.218 11.0981 19.532 9.22915ZM18.0258 17.975C16.3896 17.975 15.0633 16.6487 15.0633 15.0125C15.2085 11.0871 20.8436 11.0881 20.9883 15.0126C20.9883 16.6487 19.6619 17.975 18.0258 17.975Z" fill="#2BB6F2"/>
<path d="M11.95 9.74064C11.95 6.44073 9.27486 3.76562 5.97496 3.76562C-1.05161 3.91938 -2.21678 13.6554 4.46872 15.524V17.2719H1.4562C1.06789 17.2719 0.75308 17.5867 0.75308 17.975V19.5813C0.75308 19.9696 1.06789 20.2844 1.4562 20.2844H4.46872V23.2969C4.46872 23.6852 4.78353 24 5.17185 24H6.77811C7.16642 24 7.48124 23.6852 7.48124 23.2969V20.2844H10.4938C10.8821 20.2844 11.1969 19.9696 11.1969 19.5812V17.975C11.1969 17.5867 10.8821 17.2719 10.4938 17.2719H7.48124V15.5239C10.0519 14.8563 11.95 12.5202 11.95 9.74064ZM5.97496 12.7031C4.33883 12.7031 3.01245 11.3768 3.01245 9.74064C3.15767 5.81519 8.7928 5.81622 8.93746 9.74069C8.93746 11.3768 7.61108 12.7031 5.97496 12.7031Z" fill="#2BB6F2"/>
</g>
<defs>
<clipPath id="clip0_398_265">
<rect width="24" height="24" fill="white"/>
</clipPath>
</defs>
</svg>
