<svg width="20" height="20" viewBox="0 0 20 20" fill="none" xmlns="http://www.w3.org/2000/svg">
<g clip-path="url(#clip0_422_46)">
<path d="M11.6714 12.2537C11.1739 12.5854 10.5959 12.7607 10 12.7607C9.40414 12.7607 8.82617 12.5854 8.32859 12.2537L0.133164 6.78989C0.087922 6.75964 0.0435173 6.72816 0 6.69547L0 15.6485C0 16.675 0.833008 17.4896 1.84113 17.4896H18.1588C19.1853 17.4896 20 16.6566 20 15.6485V6.69543C19.9564 6.7282 19.9119 6.75975 19.8665 6.79004L11.6714 12.2537Z" fill="#43BA7F"/>
<path d="M0.783204 5.81475L8.97863 11.2786C9.28887 11.4854 9.64441 11.5888 9.99996 11.5888C10.3555 11.5888 10.7111 11.4854 11.0214 11.2786L19.2168 5.81475C19.7072 5.48799 20 4.94112 20 4.35088C20 3.336 19.1743 2.51038 18.1595 2.51038H1.84051C0.825665 2.51042 9.68791e-07 3.33604 9.68791e-07 4.35186C-0.000303273 4.64139 0.0710559 4.9265 0.207714 5.18176C0.344372 5.43701 0.54208 5.65447 0.783204 5.81475Z" fill="#43BA7F"/>
</g>
<defs>
<clipPath id="clip0_422_46">
<rect width="20" height="20" fill="white"/>
</clipPath>
</defs>
</svg>
