<svg width="78" height="78" viewBox="0 0 78 78" fill="none" xmlns="http://www.w3.org/2000/svg">
<path opacity="0.1" d="M34.8851 78H43.1218C45.8848 77.9977 48.5339 76.8991 50.4876 74.9454C52.4413 72.9917 53.5399 70.3426 53.5422 67.5796V53.4121L67.5831 53.5387C70.3461 53.5353 72.995 52.4364 74.9491 50.4831C76.9032 48.5298 78.0032 45.8814 78.0078 43.1184V34.8816C78.0043 32.1179 76.9049 29.4683 74.9506 27.5141C72.9964 25.5598 70.3468 24.4604 67.5831 24.4569H53.4155L53.5422 10.4204C53.5399 7.65743 52.4413 5.00831 50.4876 3.05461C48.5339 1.10091 45.8848 0.00231306 43.1218 0H34.8851C32.1221 0.00231306 29.473 1.10091 27.5193 3.05461C25.5656 5.00831 24.467 7.65743 24.4647 10.4204V24.5879L10.4238 24.4569C7.66008 24.4604 5.01051 25.5598 3.05625 27.5141C1.10198 29.4683 0.00254822 32.1179 -0.000915527 34.8816V43.1184C0.00370789 45.8814 1.10365 48.5298 3.05779 50.4831C5.01193 52.4364 7.66084 53.5353 10.4238 53.5387H24.5914L24.4691 67.5796C24.4714 70.3418 25.5694 72.9903 27.5221 74.9438C29.4749 76.8974 32.1229 77.9965 34.8851 78ZM67.5831 28.8242C69.1892 28.8253 70.7293 29.4639 71.865 30.5996C73.0008 31.7354 73.6394 33.2755 73.6405 34.8816V43.1184C73.6382 44.7238 72.9991 46.2627 71.8635 47.3975C70.7279 48.5323 69.1885 49.1703 67.5831 49.1714H53.4155C52.2905 49.1714 51.2114 49.6181 50.4154 50.4132C49.6194 51.2084 49.1717 52.287 49.1705 53.4121V67.5796C49.1682 69.1843 48.5297 70.7226 47.3951 71.8572C46.2604 72.9919 44.7221 73.6304 43.1174 73.6327H34.8807C33.276 73.6304 31.7378 72.9919 30.6031 71.8572C29.4684 70.7226 28.8299 69.1843 28.8276 67.5796V53.4121C28.8265 52.287 28.3787 51.2084 27.5828 50.4132C26.7868 49.6181 25.7077 49.1714 24.5826 49.1714H10.4195C8.81404 49.1703 7.27464 48.5323 6.13902 47.3975C5.0034 46.2627 4.36433 44.7238 4.36202 43.1184V34.8816C4.36317 33.2747 5.00234 31.734 6.13903 30.5981C7.27571 29.4622 8.81689 28.8242 10.4238 28.8242H24.5914C25.7157 28.8242 26.7941 28.3781 27.59 27.5839C28.3858 26.7897 28.8341 25.7122 28.8364 24.5879V10.4204C28.8387 8.81647 29.4766 7.27885 30.6103 6.1443C31.744 5.00975 33.2812 4.37077 34.8851 4.3673H43.1218C44.7265 4.36961 46.2648 5.00809 47.3994 6.14276C48.5341 7.27743 49.1726 8.81571 49.1749 10.4204V24.5879C49.1772 25.7122 49.6255 26.7897 50.4213 27.5839C51.2172 28.3781 52.2956 28.8242 53.4199 28.8242H67.5831Z" fill="#43BA7F"/>
</svg>
