<svg width="47" height="47" viewBox="0 0 47 47" fill="none" xmlns="http://www.w3.org/2000/svg">
<path opacity="0.1" d="M21.0273 46.9933H25.9898C27.6544 46.9919 29.2504 46.33 30.4275 45.1529C31.6045 43.9759 32.2664 42.3799 32.2678 40.7152V32.1796L40.7271 32.2559C42.3918 32.2538 43.9877 31.5918 45.165 30.415C46.3423 29.2381 47.005 27.6425 47.0078 25.9779V21.0154C47.0057 19.3503 46.3433 17.754 45.1659 16.5766C43.9885 15.3992 42.3922 14.7368 40.7271 14.7347H32.1915L32.2678 6.27805C32.2664 4.61344 31.6045 3.0174 30.4275 1.84034C29.2504 0.663277 27.6544 0.00139357 25.9898 0H21.0273C19.3627 0.00139357 17.7667 0.663277 16.5896 1.84034C15.4125 3.0174 14.7507 4.61344 14.7493 6.27805V14.8137L6.28995 14.7347C4.62485 14.7368 3.02855 15.3992 1.85114 16.5766C0.673737 17.754 0.0113564 19.3503 0.0092659 21.0154V25.9779C0.0120506 27.6425 0.67474 29.2381 1.85207 30.415C3.0294 31.5918 4.6253 32.2538 6.28995 32.2559H14.8256L14.7519 40.7152C14.7533 42.3794 15.4148 43.975 16.5913 45.152C17.7678 46.329 19.3632 46.9912 21.0273 46.9933ZM40.7271 17.3659C41.6948 17.3666 42.6227 17.7514 43.3069 18.4356C43.9912 19.1199 44.3759 20.0477 44.3766 21.0154V25.9779C44.3752 26.9451 43.9902 27.8723 43.306 28.556C42.6218 29.2397 41.6944 29.624 40.7271 29.6247H32.1915C31.5137 29.6247 30.8635 29.8938 30.384 30.3729C29.9044 30.8519 29.6347 31.5018 29.634 32.1796V40.7152C29.6326 41.682 29.2479 42.6088 28.5643 43.2924C27.8807 43.976 26.9539 44.3607 25.9871 44.3621H21.0247C20.0579 44.3607 19.1311 43.976 18.4475 43.2924C17.7639 42.6088 17.3792 41.682 17.3778 40.7152V32.1796C17.3771 31.5018 17.1074 30.8519 16.6278 30.3729C16.1483 29.8938 15.4981 29.6247 14.8203 29.6247H6.28732C5.32008 29.624 4.39263 29.2397 3.70844 28.556C3.02426 27.8723 2.63923 26.9451 2.63784 25.9779V21.0154C2.63854 20.0473 3.02362 19.119 3.70845 18.4347C4.39328 17.7504 5.3218 17.3659 6.28995 17.3659H14.8256C15.503 17.3659 16.1527 17.0972 16.6322 16.6187C17.1116 16.1402 17.3817 15.4911 17.3831 14.8137V6.27805C17.3845 5.31173 17.7688 4.38534 18.4518 3.7018C19.1349 3.01827 20.061 2.63329 21.0273 2.6312H25.9898C26.9565 2.6326 27.8833 3.01726 28.5669 3.70088C29.2506 4.38449 29.6352 5.31127 29.6366 6.27805V14.8137C29.638 15.4911 29.9081 16.1402 30.3876 16.6187C30.867 17.0972 31.5168 17.3659 32.1941 17.3659H40.7271Z" fill="#43BA7F"/>
</svg>
