<svg width="58" height="58" viewBox="0 0 58 58" fill="none" xmlns="http://www.w3.org/2000/svg">
<path opacity="0.1" d="M25.9422 58H32.0669C34.1214 57.9983 36.0913 57.1814 37.544 55.7286C38.9968 54.2759 39.8137 52.306 39.8154 50.2515V39.7167L50.2561 39.8109C52.3106 39.8083 54.2803 38.9912 55.7334 37.5387C57.1865 36.0863 58.0044 34.1169 58.0078 32.0624V25.9376C58.0052 23.8825 57.1877 21.9123 55.7345 20.4592C54.2814 19.006 52.3112 18.1885 50.2561 18.1859H39.7213L39.8154 7.74849C39.8137 5.69399 38.9968 3.72413 37.544 2.27138C36.0913 0.818629 34.1214 0.00171997 32.0669 0H25.9422C23.8877 0.00171997 21.9178 0.818629 20.4651 2.27138C19.0123 3.72413 18.1954 5.69399 18.1937 7.74849V18.2833L7.75305 18.1859C5.69796 18.1885 3.72777 19.006 2.27459 20.4592C0.821423 21.9123 0.00389862 23.8825 0.00131989 25.9376V32.0624C0.00475693 34.1169 0.822659 36.0863 2.27574 37.5387C3.72882 38.9912 5.69852 39.8083 7.75305 39.8109H18.2879L18.197 50.2515C18.1987 52.3055 19.0151 54.2748 20.4672 55.7275C21.9192 57.1801 23.8883 57.9974 25.9422 58ZM50.2561 21.4334C51.4504 21.4342 52.5956 21.9091 53.4401 22.7536C54.2846 23.5981 54.7595 24.7433 54.7603 25.9376V32.0624C54.7586 33.2561 54.2834 34.4005 53.439 35.2443C52.5945 36.0881 51.4499 36.5625 50.2561 36.5634H39.7213C38.8846 36.5634 38.0823 36.8955 37.4904 37.4868C36.8985 38.078 36.5656 38.8801 36.5647 39.7167V50.2515C36.563 51.4447 36.0882 52.5886 35.2445 53.4323C34.4008 54.276 33.2569 54.7508 32.0637 54.7525H25.9389C24.7457 54.7508 23.6019 54.276 22.7581 53.4323C21.9144 52.5886 21.4397 51.4447 21.4379 50.2515V39.7167C21.4371 38.8801 21.1041 38.078 20.5123 37.4868C19.9204 36.8955 19.118 36.5634 18.2814 36.5634H7.74981C6.55603 36.5625 5.41134 36.0881 4.56691 35.2443C3.72248 34.4005 3.24727 33.2561 3.24556 32.0624V25.9376C3.24641 24.7427 3.72169 23.5971 4.56692 22.7524C5.41214 21.9078 6.55815 21.4334 7.75305 21.4334H18.2879C19.1239 21.4334 19.9258 21.1017 20.5176 20.5111C21.1094 19.9206 21.4427 19.1194 21.4444 18.2833V7.74849C21.4461 6.55584 21.9205 5.41248 22.7635 4.56884C23.6065 3.7252 24.7495 3.25006 25.9422 3.24748H32.0669C33.2602 3.2492 34.404 3.72396 35.2477 4.56769C36.0915 5.41142 36.5662 6.55527 36.5679 7.74849V18.2833C36.5697 19.1194 36.903 19.9206 37.4948 20.5111C38.0866 21.1017 38.8885 21.4334 39.7245 21.4334H50.2561Z" fill="#43BA7F"/>
</svg>
