<svg width="86" height="86" viewBox="0 0 86 86" fill="none" xmlns="http://www.w3.org/2000/svg">
<path opacity="0.1" d="M38.4597 86H47.5403C50.5862 85.9975 53.5067 84.7862 55.6606 82.6321C57.8144 80.478 59.0256 77.5572 59.0281 74.5109V58.8903L74.5073 59.0299C77.5534 59.0261 80.4736 57.8145 82.628 55.6609C84.7823 53.5072 85.9949 50.5871 86 47.5408V38.4592C85.9962 35.412 84.7841 32.4907 82.6297 30.336C80.4752 28.1813 77.5542 26.9691 74.5073 26.9653H58.8885L59.0281 11.4891C59.0256 8.44281 57.8144 5.52199 55.6606 3.36791C53.5067 1.21383 50.5862 0.0025503 47.5403 0H38.4597C35.4138 0.0025503 32.4933 1.21383 30.3394 3.36791C28.1856 5.52199 26.9744 8.44281 26.9719 11.4891V27.1097L11.4927 26.9653C8.44579 26.9691 5.5248 28.1813 3.37034 30.336C1.21587 32.4907 0.00382233 35.412 0 38.4592V47.5408C0.00509644 50.5871 1.21771 53.5072 3.37204 55.6609C5.52637 57.8145 8.44662 59.0261 11.4927 59.0299H27.1115L26.9767 74.5109C26.9793 77.5564 28.1897 80.4764 30.3425 82.6304C32.4953 84.7843 35.4146 85.9962 38.4597 86ZM74.5073 31.7805C76.2781 31.7818 77.9759 32.4858 79.228 33.7381C80.4801 34.9903 81.184 36.6883 81.1853 38.4592V47.5408C81.1828 49.3108 80.4782 51.0076 79.2263 52.2588C77.9743 53.51 76.2772 54.2134 74.5073 54.2147H58.8885C57.6481 54.2147 56.4585 54.7071 55.581 55.5838C54.7035 56.4605 54.2099 57.6498 54.2086 58.8903V74.5109C54.2061 76.2801 53.5022 77.9762 52.2513 79.2272C51.0004 80.4783 49.3045 81.1822 47.5354 81.1848H38.4549C36.6859 81.1822 34.99 80.4783 33.7391 79.2272C32.4882 77.9762 31.7843 76.2801 31.7818 74.5109V58.8903C31.7805 57.6498 31.2869 56.4605 30.4094 55.5838C29.5319 54.7071 28.3422 54.2147 27.1019 54.2147H11.4878C9.71796 54.2134 8.02086 53.51 6.76891 52.2588C5.51696 51.0076 4.81242 49.3108 4.80988 47.5408V38.4592C4.81116 36.6875 5.51579 34.9887 6.76892 33.7364C8.02205 32.484 9.72111 31.7805 11.4927 31.7805H27.1115C28.351 31.7805 29.5399 31.2887 30.4173 30.4131C31.2947 29.5374 31.7888 28.3494 31.7914 27.1097V11.4891C31.7939 9.72072 32.4972 8.02539 33.747 6.77448C34.9969 5.52357 36.6915 4.81905 38.4597 4.81523H47.5403C49.3093 4.81778 51.0052 5.52174 52.2561 6.77279C53.507 8.02384 54.2109 9.71989 54.2134 11.4891V27.1097C54.216 28.3494 54.7101 29.5374 55.5875 30.4131C56.4649 31.2887 57.6538 31.7805 58.8933 31.7805H74.5073Z" fill="#43BA7F"/>
</svg>
