<svg width="207" height="206" viewBox="0 0 207 206" fill="none" xmlns="http://www.w3.org/2000/svg">
<path opacity="0.1" d="M92.5717 206H114.428C121.76 205.994 128.789 203.092 133.974 197.933C139.158 192.773 142.073 185.777 142.079 178.48V141.063L179.337 141.397C186.669 141.388 193.698 138.486 198.884 133.327C204.069 128.168 206.988 121.174 207 113.877V92.1233C206.991 84.8242 204.073 77.8266 198.888 72.6653C193.702 67.5041 186.671 64.6004 179.337 64.5913H141.743L142.079 27.5205C142.073 20.2235 139.158 13.2271 133.974 8.06731C128.789 2.90754 121.76 0.00610885 114.428 0H92.5717C85.2401 0.00610885 78.2105 2.90754 73.0263 8.06731C67.8421 13.2271 64.9269 20.2235 64.9207 27.5205V64.9373L27.6626 64.5913C20.3288 64.6004 13.2981 67.5041 8.11234 72.6653C2.92659 77.8266 0.00920105 84.8242 0 92.1233V113.877C0.0122681 121.174 2.93102 128.168 8.11642 133.327C13.3018 138.486 20.3308 141.388 27.6626 141.397H65.2568L64.9323 178.48C64.9384 185.775 67.8521 192.769 73.0338 197.929C78.2155 203.088 85.2421 205.991 92.5717 206ZM179.337 76.1254C183.599 76.1285 187.686 77.8149 190.7 80.8145C193.714 83.814 195.408 87.8813 195.411 92.1233V113.877C195.405 118.117 193.709 122.181 190.696 125.178C187.682 128.175 183.597 129.86 179.337 129.863H141.743C138.758 129.863 135.894 131.043 133.782 133.143C131.67 135.243 130.482 138.091 130.479 141.063V178.48C130.473 182.717 128.778 186.78 125.768 189.777C122.757 192.774 118.675 194.46 114.417 194.466H92.5601C88.3021 194.46 84.2202 192.774 81.2093 189.777C78.1983 186.78 76.5041 182.717 76.498 178.48V141.063C76.4949 138.091 75.3068 135.243 73.1946 133.143C71.0825 131.043 68.2191 129.863 65.2336 129.863H27.651C23.3909 129.86 19.306 128.175 16.2926 125.178C13.2792 122.181 11.5834 118.117 11.5773 113.877V92.1233C11.5803 87.8793 13.2764 83.8102 16.2926 80.8104C19.3089 77.8105 23.3985 76.1254 27.6626 76.1254H65.2568C68.2403 76.1254 71.1019 74.9474 73.2137 72.8499C75.3255 70.7524 76.515 67.9067 76.5212 64.9373V27.5205C76.5273 23.2845 78.2199 19.2236 81.2283 16.2272C84.2367 13.2309 88.3157 11.5433 92.5717 11.5342H114.428C118.686 11.5403 122.768 13.2265 125.779 16.2232C128.79 19.2199 130.484 23.2825 130.49 27.5205V64.9373C130.497 67.9067 131.686 70.7524 133.798 72.8499C135.91 74.9474 138.771 76.1254 141.755 76.1254H179.337Z" fill="#43BA7F"/>
</svg>
