<svg width="24" height="24" viewBox="0 0 24 24" fill="none" xmlns="http://www.w3.org/2000/svg">
<path d="M10.3822 16.3084C10.294 16.3084 10.2067 16.2906 10.1255 16.2561C10.0443 16.2217 9.97091 16.1712 9.90965 16.1077L6.47484 12.5456C6.35403 12.4203 6.28795 12.2522 6.29112 12.0781C6.2943 11.9041 6.36648 11.7385 6.49177 11.6177C6.61707 11.4969 6.78523 11.4308 6.95925 11.434C7.13327 11.4371 7.2989 11.5093 7.41971 11.6346L10.3808 14.7055L16.5799 8.24311C16.701 8.12001 16.8656 8.04956 17.0383 8.04704C17.2109 8.04451 17.3775 8.11012 17.5021 8.22963C17.6267 8.34914 17.6992 8.51294 17.7039 8.68552C17.7085 8.8581 17.645 9.02557 17.527 9.15162L10.8556 16.1064C10.7944 16.1702 10.721 16.2209 10.6398 16.2556C10.5586 16.2903 10.4711 16.3083 10.3828 16.3084H10.3822Z" fill="#193126"/>
<path d="M12.5 22.9995C6.7103 22.9995 2 18.2892 2 12.4995C2 6.70981 6.7103 1.99951 12.5 1.99951C18.2897 1.99951 23 6.70981 23 12.4995C23 18.2892 18.2898 22.9995 12.5 22.9995ZM12.5 3.31201C7.43401 3.31201 3.3125 7.43352 3.3125 12.4995C3.3125 17.5655 7.43401 21.687 12.5 21.687C17.566 21.687 21.6875 17.5655 21.6875 12.4995C21.6875 7.43352 17.566 3.31201 12.5 3.31201Z" fill="#193126"/>
</svg>
