<svg width="256" height="338" viewBox="0 0 256 338" fill="none" xmlns="http://www.w3.org/2000/svg">
<path opacity="0.1" d="M186.865 338H151.173C139.2 337.99 127.72 333.229 119.254 324.763C110.788 316.297 106.028 304.818 106.018 292.845V231.452L45.1739 232.001C33.2009 231.986 21.7224 227.225 13.2544 218.76C4.78644 210.296 0.0200291 198.819 0 186.846V151.154C0.0150235 139.177 4.77923 127.696 13.2477 119.228C21.7162 110.759 33.1977 105.995 45.1739 105.98H106.566L106.018 45.155C106.028 33.1822 110.788 21.7027 119.254 13.2367C127.72 4.77063 139.2 0.0100233 151.173 0H186.865C198.838 0.0100233 210.317 4.77063 218.783 13.2367C227.25 21.7027 232.01 33.1822 232.02 45.155V106.548L292.864 105.98C304.84 105.995 316.322 110.759 324.79 119.228C333.259 127.696 338.023 139.177 338.038 151.154V186.846C338.018 198.819 333.251 210.296 324.783 218.76C316.315 227.225 304.837 231.986 292.864 232.001H231.471L232.001 292.845C231.991 304.815 227.233 316.291 218.771 324.757C210.309 333.222 198.835 337.985 186.865 338ZM45.1739 124.905C38.2138 124.91 31.5402 127.677 26.6186 132.598C21.6971 137.52 18.93 144.194 18.925 151.154V186.846C18.935 193.803 21.7043 200.472 26.6253 205.389C31.5463 210.307 38.2171 213.071 45.1739 213.076H106.566C111.442 213.076 116.118 215.012 119.567 218.457C123.016 221.903 124.957 226.577 124.962 231.452V292.845C124.972 299.799 127.738 306.464 132.655 311.381C137.572 316.298 144.238 319.065 151.192 319.075H186.884C193.838 319.065 200.504 316.298 205.42 311.381C210.337 306.464 213.104 299.799 213.114 292.845V231.452C213.119 226.577 215.059 221.903 218.509 218.457C221.958 215.012 226.634 213.076 231.509 213.076H292.883C299.84 213.071 306.51 210.307 311.431 205.389C316.352 200.472 319.122 193.803 319.132 186.846V151.154C319.127 144.19 316.357 137.514 311.431 132.592C306.506 127.67 299.827 124.905 292.864 124.905H231.471C226.599 124.905 221.926 122.972 218.477 119.53C215.029 116.089 213.086 111.42 213.076 106.548V45.155C213.066 38.2047 210.302 31.5417 205.389 26.6253C200.476 21.7089 193.815 18.94 186.865 18.925H151.173C144.219 18.935 137.553 21.7017 132.636 26.6186C127.719 31.5355 124.953 38.2014 124.943 45.155V106.548C124.933 111.42 122.99 116.089 119.542 119.53C116.093 122.972 111.42 124.905 106.548 124.905H45.1739Z" fill="#43BA7F"/>
</svg>
