<svg width="24" height="24" viewBox="0 0 24 24" fill="none" xmlns="http://www.w3.org/2000/svg">
<path d="M20.6872 19.1803L17.2272 15.7202C18.2823 14.3447 18.8531 12.6591 18.851 10.9255C18.851 8.80771 18.0263 6.81738 16.5289 5.31997C15.7945 4.58148 14.9209 3.99599 13.9587 3.59739C12.9965 3.1988 11.9648 2.99501 10.9233 2.99783C8.80601 2.99783 6.81569 3.82256 5.31774 5.31997C2.22742 8.41082 2.22742 13.4403 5.31774 16.5311C6.05212 17.2696 6.92569 17.8551 7.8879 18.2537C8.8501 18.6523 9.88181 18.8561 10.9233 18.8532C12.6805 18.8532 14.3454 18.2776 15.7185 17.2289L19.1786 20.6894C19.3866 20.8974 19.6597 21.002 19.9329 21.002C20.206 21.002 20.4791 20.8974 20.6872 20.6894C20.7863 20.5903 20.8649 20.4727 20.9186 20.3432C20.9722 20.2137 20.9998 20.075 20.9998 19.9348C20.9998 19.7947 20.9722 19.6559 20.9186 19.5264C20.8649 19.397 20.7863 19.2793 20.6872 19.1803ZM6.82689 15.0225C4.5677 12.7633 4.56823 9.08778 6.82689 6.82859C7.36374 6.28904 8.00225 5.8613 8.70548 5.57012C9.40872 5.27894 10.1627 5.13009 10.9238 5.13219C11.6849 5.1301 12.4388 5.27895 13.1419 5.57014C13.8451 5.86132 14.4835 6.28905 15.0203 6.82859C15.5599 7.36536 15.9878 8.00384 16.2791 8.70709C16.5704 9.41033 16.7193 10.1644 16.7172 10.9255C16.7172 12.4731 16.1144 13.9278 15.0203 15.0225C13.9261 16.1171 12.4714 16.7189 10.9233 16.7189C9.37628 16.7189 7.92101 16.1161 6.82635 15.0225H6.82689Z" fill="white"/>
</svg>
